<svg id="apple" xmlns="http://www.w3.org/2000/svg" viewBox="0 0 2900 4060"><defs><style>.cls-1{fill:#a5383f;}.cls-2{fill:#822129;}.cls-3{fill:#66151b;}.cls-4{fill:#471316;}.cls-5{fill:#411318;}.cls-6{fill:#581117;}.cls-7{fill:#501016;}.cls-8{fill:#4a1e1f;}.cls-9{fill:#611e25;}.cls-10{fill:#662225;}.cls-11{fill:#6d2629;}.cls-12{fill:#761c22;}.cls-13{fill:#782f30;}.cls-14{fill:#6b2327;}.cls-15{fill:#7b2e32;}.cls-16{fill:#6d282b;}.cls-17{fill:#7e2627;}.cls-18{fill:#712529;}.cls-19{fill:#6a262c;}.cls-20{fill:#6b161d;}.cls-21{fill:#661019;}.cls-22{fill:#ab8f86;}.cls-23{fill:#662b2d;}.cls-24{fill:#cbb5ad;}.cls-25{fill:#d2a9a1;}.cls-26{fill:#651218;}.cls-27{fill:#6e0f0f;}.cls-28{fill:#c19591;}.cls-29{fill:#971f21;}.cls-30{fill:#a97972;}.cls-31{fill:#a14644;}.cls-32{fill:#58241b;}.cls-33{fill:#5d2018;}.cls-34{fill:#571419;}.cls-35{fill:#5f1712;}.cls-36{fill:#4c1a14;}.cls-37{fill:#89181b;}.cls-38{fill:#9c3121;}.cls-39{fill:#962123;}.cls-40{fill:#7f2f32;}.cls-41{fill:#7b0f11;}.cls-42{fill:#9c1c18;}.cls-43{fill:#c34736;}.cls-44{fill:#bb6a62;}.cls-45{fill:#d4aba8;}.cls-46{fill:#c46d64;}.cls-47{fill:#ef7d69;}.cls-48{fill:#e0574a;}.cls-49{fill:#e65b4a;}.cls-50{fill:#d02f24;}.cls-51{fill:#dd504f;}.cls-52{fill:#c53c40;}.cls-53{fill:#c94349;}.cls-54{fill:#a14544;}.cls-55{fill:#811a1d;}.cls-56{fill:#c48980;}.cls-57{fill:#a37067;}.cls-58{fill:#ac786e;}.cls-59{fill:#dfccc3;}.cls-60{fill:#c8272b;}.cls-61{fill:#9c1f23;}.cls-62{fill:#d53632;}.cls-63{fill:#c22625;}.cls-64{fill:#af1f27;}.cls-65{fill:#7e3035;}.cls-66{fill:#925645;}.cls-67{fill:#931c23;}.cls-68{fill:#844b41;}.cls-69{fill:#6f261f;}.cls-70{fill:#7f151d;}.cls-71{fill:#740f17;}.cls-72{fill:#a91a22;}.cls-73{fill:#b62d2f;}.cls-74{fill:#e5150f;}.cls-75{fill:#eb534e;}.cls-76{fill:#d14846;}.cls-77{fill:#d9514e;}.cls-78{fill:#c93c3f;}.cls-79{fill:#7f0913;}.cls-80{fill:#940814;}.cls-81{fill:#700c15;}.cls-82{fill:#660711;}.cls-83{fill:#723732;}.cls-84{fill:#6d1721;}.cls-85{fill:#6a2327;}.cls-86{fill:#76070e;}.cls-87{fill:#7d151e;}.cls-88{fill:#730613;}.cls-89{fill:#ae0d12;}.cls-90{fill:#7d1018;}.cls-91{fill:#721c23;}.cls-92{fill:#792228;}.cls-93{fill:#75242a;}.cls-94{fill:#72121a;}.cls-95{fill:#712025;}.cls-96{fill:#761f24;}.cls-97{fill:#76131e;}.cls-98{fill:#820b13;}.cls-99{fill:#8f131a;}.cls-100{fill:#e56560;}.cls-101{fill:#f1b4b0;}.cls-102{fill:#f2928d;}.cls-103{fill:#f8cdc8;}.cls-104{fill:#fdf4f2;}.cls-105{fill:#f5e2dd;}.cls-106{fill:#ffd8d4;}.cls-107{fill:#f0c3c2;}.cls-108{fill:#fcdfd9;}.cls-109{fill:#db493b;}.cls-110{fill:#fe9b88;}.cls-111{fill:#f08d8b;}.cls-112{fill:#da4447;}.cls-113{fill:#c62028;}.cls-114{fill:#ad1e21;}.cls-115{fill:#850d15;}.cls-116{fill:#810e19;}.cls-117{fill:#97060d;}.cls-118{fill:#8a0d17;}.cls-119{fill:#c32d2e;}.cls-120{fill:#ad1c1d;}.cls-121{fill:#a40f16;}.cls-122{fill:#80171f;}.cls-123{fill:#782228;}.cls-124{fill:#742127;}.cls-125{fill:#891d25;}.cls-126{fill:#7d1d25;}.cls-127{fill:#7a1e22;}.cls-128{fill:#911f28;}.cls-129{fill:#802125;}.cls-130{fill:#731a20;}.cls-131{fill:#841a20;}.cls-132{fill:#731b21;}.cls-133{fill:#84171b;}.cls-134{fill:#63191e;}.cls-135{fill:#77181f;}.cls-136{fill:#991119;}.cls-137{fill:#681b1f;}.cls-138{fill:#a31c20;}.cls-139{fill:#5a151a;}.cls-140{fill:#74191d;}.cls-141{fill:#61141b;}.cls-142{fill:#531318;}.cls-143{fill:#5e141b;}.cls-144{fill:#541319;}.cls-145{fill:#7e1518;}.cls-146{fill:#621217;}.cls-147{fill:#71131a;}.cls-148{fill:#791219;}.cls-149{fill:#8a1619;}.cls-150{fill:#74171e;}.cls-151{fill:#882229;}.cls-152{fill:#801a21;}.cls-153{fill:#a52731;}.cls-154{fill:#9b2328;}.cls-155{fill:#a7272c;}.cls-156{fill:#a12227;}.cls-157{fill:#92181e;}.cls-158{fill:#84131a;}.cls-159{fill:#9e2129;}.cls-160{fill:#c52f31;}.cls-161{fill:#d60d06;}.cls-162{fill:#e24e48;}.cls-163{fill:#e9483d;}.cls-164{fill:#da3934;}.cls-165{fill:#e11310;}.cls-166{fill:#9f0605;}.cls-167{fill:#cb2821;}.cls-168{fill:#d43330;}.cls-169{fill:#b90e0e;}.cls-170{fill:#93191e;}.cls-171{fill:#b12329;}.cls-172{fill:#a41f27;}.cls-173{fill:#ae2429;}.cls-174{fill:#c42a2d;}.cls-175{fill:#a61318;}.cls-176{fill:#911419;}.cls-177{fill:#97161c;}.cls-178{fill:#a3080d;}.cls-179{fill:#ab1d21;}.cls-180{fill:#ae2227;}.cls-181{fill:#b32126;}.cls-182{fill:#e14537;}.cls-183{fill:#d94a45;}.cls-184{fill:#bc2c2b;}.cls-185{fill:#bf2e2f;}.cls-186{fill:#cf3935;}.cls-187{fill:#ea5149;}.cls-188{fill:#d9423b;}.cls-189{fill:#e8544d;}.cls-190{fill:#76453d;}.cls-191{fill:#a04638;}.cls-192{fill:#833b32;}.cls-193{fill:#985e4c;}.cls-194{fill:#d0c0ab;}.cls-195{fill:#5b4343;}.cls-196{fill:#4a2d2a;}.cls-197{fill:#533527;}.cls-198{fill:#9a6e5b;}.cls-199{fill:#5c2816;}.cls-200{fill:#6d4e49;}.cls-201{fill:#9d4030;}.cls-202{fill:#5d312d;}.cls-203{fill:#92483a;}.cls-204{fill:#b9523b;}.cls-205{fill:#843622;}.cls-206{fill:#b75d42;}.cls-207{fill:#51342d;}</style></defs><title>apple</title><path class="cls-1" d="M808.21,2759.9c21,26,86,103,160,154l45-213Z"/><path class="cls-2" d="M968.21,2913.9c47,34,182,107,229,46l-131-173Z"/><path class="cls-3" d="M1197.21,2959.9c21-27,75,57,141,64l-19-191Z"/><path class="cls-4" d="M1338.21,3023.9c27,3,96,4,142-44l-161-147Z"/><path class="cls-5" d="M1480.21,2979.9c12-10,57-62,97-56l-79-118Z"/><path class="cls-6" d="M1577.21,2923.9c27-1,68,32,99,50l25-138Z"/><path class="cls-7" d="M1676.21,2973.9c9,6,87,21,146-14l-121-124Z"/><path class="cls-8" d="M1822.21,2959.9c15-7,100-57,112-69l-110-77Z"/><path class="cls-9" d="M1934.21,2890.9c15-11,52-40,85-74l-39-74Z"/><path class="cls-10" d="M2019.21,2816.9c10-9,92-99,103-117l-142,43Z"/><path class="cls-11" d="M2122.21,2699.9c12-14,48-64,57-81l-114-3Z"/><path class="cls-12" d="M2179.21,2618.9c8-13,40-60,63-122l-133-21Z"/><path class="cls-13" d="M2242.21,2496.9c4-8,32-70,34-82l-167,61Z"/><path class="cls-14" d="M2276.21,2414.9c8-18,33-80,37-96h-117Z"/><path class="cls-15" d="M2313.21,2318.9c6-15,25-74,28-89l-101-12Z"/><path class="cls-16" d="M2341.21,2229.9c5-16,20-135,20-154l-132-17Z"/><path class="cls-17" d="M2361.21,2075.9c1-23,6-98,5-119l-137,102Z"/><path class="cls-18" d="M2366.21,1956.9c1-18-2-94-8-118l-99,106Z"/><path class="cls-19" d="M2358.21,1838.9c-5-29-21-93-34-114l-130,81Z"/><path class="cls-20" d="M2324.21,1724.9c-19-51-66-172-111-215l-260,154Z"/><path class="cls-21" d="M2213.21,1509.9c-28-35-135-133-169-147l-91,301Z"/><path class="cls-22" d="M2044.21,1362.9c-28-19-150-77-178-83l-37,94Z"/><path class="cls-23" d="M1866.21,1279.9c-37-13-127-31-197-33l20,103Z"/><polygon class="cls-24" points="1829.2 1373.9 1689.2 1349.9 1866.2 1279.9 1829.2 1373.9"/><path class="cls-25" d="M1669.21,1246.9c-30-2-147-5-168-3l115,57Z"/><polygon class="cls-26" points="1616.2 1300.9 1689.2 1349.9 1669.2 1246.9 1616.2 1300.9"/><polygon class="cls-27" points="1616.2 1300.9 1550.2 1398.9 1689.2 1349.9 1616.2 1300.9"/><polygon class="cls-28" points="1829.2 1373.9 1550.2 1398.9 1689.2 1349.9 1829.2 1373.9"/><polygon class="cls-29" points="1311.2 1428.9 1550.2 1398.9 1585.2 1418.9 1311.2 1428.9"/><polygon class="cls-30" points="1829.2 1373.9 1585.2 1418.9 1550.2 1398.9 1829.2 1373.9"/><path class="cls-31" d="M1254.21,1259.9s223-17,247-16l-61,79Z"/><polygon class="cls-32" points="1187.2 1246.9 1254.2 1259.9 1234.2 1312.9 1187.2 1246.9"/><polygon class="cls-33" points="1287.2 1322.9 1254.2 1259.9 1234.2 1312.9 1287.2 1322.9"/><polygon class="cls-34" points="1294.2 1426.9 1287.2 1322.9 1234.2 1312.9 1294.2 1426.9"/><polygon class="cls-35" points="1311.2 1428.9 1287.2 1322.9 1294.2 1426.9 1311.2 1428.9"/><polygon class="cls-36" points="1336.7 1425.7 1287.2 1322.9 1311.2 1428.9 1336.7 1425.7"/><polygon class="cls-37" points="1440.2 1322.9 1287.2 1322.9 1254.2 1259.9 1440.2 1322.9"/><polygon class="cls-38" points="1336.2 1425.9 1287.2 1322.9 1400.06 1417.75 1336.2 1425.9"/><polygon class="cls-39" points="1440.2 1322.9 1350.27 1375.9 1287.2 1322.9 1440.2 1322.9"/><polygon class="cls-40" points="1501.2 1243.9 1616.2 1300.9 1440.2 1322.9 1501.2 1243.9"/><polygon class="cls-41" points="1550.2 1398.9 1440.2 1322.9 1616.2 1300.9 1550.2 1398.9"/><polygon class="cls-42" points="1350.2 1375.9 1550.2 1398.9 1440.2 1322.9 1350.2 1375.9"/><polygon class="cls-43" points="1400.2 1417.9 1350.2 1375.9 1550.2 1398.9 1400.2 1417.9"/><path class="cls-44" d="M1202,1267.64s-173.76,28.26-182.76,32.26l123,47Z"/><path class="cls-45" d="M863.21,1352.9c16-10,145-52,156-53l123,47Z"/><path class="cls-46" d="M729.21,1439.9c14-17,125-85,134-87l82,57Z"/><path class="cls-47" d="M729.21,1439.9c-17,16-89,101-103,137l136,65Z"/><path class="cls-48" d="M561.21,1743.9c7-26,55-152,65-167l136,65Z"/><path class="cls-49" d="M534.21,2017.9c0-40,17-252,27-274l235,143Z"/><path class="cls-50" d="M555.21,2186.9c-8-31-25-143-21-169l278,136Z"/><path class="cls-51" d="M627.21,2425.9c-16-29-70-209-72-239l250,65Z"/><path class="cls-52" d="M714.21,2626.9c-17-26-78-157-87-201l250,97Z"/><path class="cls-53" d="M808.21,2759.9c-33-35-82-99-94-133l169-11Z"/><polygon class="cls-54" points="1234.2 1312.9 1142.2 1346.9 1202.2 1267.9 1234.2 1312.9"/><polygon class="cls-55" points="1294.2 1426.9 1142.2 1346.9 1234.2 1312.9 1294.2 1426.9"/><polygon class="cls-56" points="863.21 1352.9 945.21 1409.9 1142.2 1346.9 863.21 1352.9"/><polygon class="cls-57" points="1294.2 1426.9 1051.52 1375.9 1142.2 1346.9 1294.2 1426.9"/><polygon class="cls-58" points="945.21 1409.9 1051.2 1375.9 1126.2 1462.9 945.21 1409.9"/><polygon class="cls-59" points="1294.2 1426.9 1126.2 1462.9 1051.2 1375.9 1294.2 1426.9"/><polygon class="cls-60" points="762.21 1641.9 945.21 1409.9 729.21 1439.9 762.21 1641.9"/><polygon class="cls-61" points="1126.2 1462.9 859.36 1518.73 945.21 1409.9 1126.2 1462.9"/><polygon class="cls-62" points="762.21 1641.9 955.21 1628.9 859.21 1518.9 762.21 1641.9"/><polygon class="cls-63" points="1100.2 1528.9 859.21 1518.9 955.21 1628.9 1100.2 1528.9"/><polygon class="cls-64" points="1126.2 1462.9 1100.2 1528.9 859.21 1518.9 1126.2 1462.9"/><polygon class="cls-65" points="1294.2 1426.9 1277.2 1503.9 1126.2 1462.9 1294.2 1426.9"/><polygon class="cls-66" points="1311.2 1428.9 1277.2 1503.9 1294.2 1426.9 1311.2 1428.9"/><polygon class="cls-67" points="1100.2 1528.9 1277.2 1503.9 1126.2 1462.9 1100.2 1528.9"/><polygon class="cls-68" points="1476.7 1422.87 1277.2 1503.9 1311.2 1428.9 1476.7 1422.87"/><polygon class="cls-69" points="1585.2 1418.9 1522.2 1517.9 1476.2 1422.9 1585.2 1418.9"/><polygon class="cls-70" points="1100.2 1528.9 1211.2 1646.9 1277.2 1503.9 1100.2 1528.9"/><polygon class="cls-71" points="1522.2 1517.9 1277.2 1503.9 1476.2 1422.9 1522.2 1517.9"/><polygon class="cls-72" points="1211.2 1646.9 1522.2 1517.9 1277.2 1503.9 1211.2 1646.9"/><polygon class="cls-73" points="955.21 1628.9 1211.2 1646.9 1100.2 1528.9 955.21 1628.9"/><polygon class="cls-74" points="762.21 1641.9 796.21 1886.9 561.21 1743.9 762.21 1641.9"/><polygon class="cls-75" points="955.21 1628.9 796.21 1886.9 762.21 1641.9 955.21 1628.9"/><polygon class="cls-76" points="1211.2 1646.9 1061.2 1775.9 955.21 1628.9 1211.2 1646.9"/><polygon class="cls-77" points="796.21 1886.9 1061.2 1775.9 955.21 1628.9 796.21 1886.9"/><polygon class="cls-78" points="1211.2 1646.9 1255.2 1789.9 1061.2 1775.9 1211.2 1646.9"/><polygon class="cls-79" points="1522.2 1517.9 1531.2 1593.9 1211.2 1646.9 1522.2 1517.9"/><polygon class="cls-80" points="1255.2 1789.9 1531.2 1593.9 1211.2 1646.9 1255.2 1789.9"/><polygon class="cls-81" points="1585.2 1418.9 1715.2 1590.9 1522.2 1517.9 1585.2 1418.9"/><polygon class="cls-82" points="1531.2 1593.9 1715.2 1590.9 1522.2 1517.9 1531.2 1593.9"/><polygon class="cls-83" points="1829.2 1373.9 1849.2 1512.9 2044.2 1362.9 1829.2 1373.9"/><polygon class="cls-84" points="1953.2 1663.9 1849.2 1512.9 2044.2 1362.9 1953.2 1663.9"/><polygon class="cls-85" points="1585.2 1418.9 1849.2 1512.9 1829.2 1373.9 1585.2 1418.9"/><polygon class="cls-86" points="1715.2 1590.9 1849.2 1512.9 1585.2 1418.9 1715.2 1590.9"/><polygon class="cls-87" points="1953.2 1663.9 1715.2 1590.9 1849.2 1512.9 1953.2 1663.9"/><polygon class="cls-88" points="1531.2 1593.9 1517.2 1739.9 1715.2 1590.9 1531.2 1593.9"/><polygon class="cls-89" points="1255.2 1789.9 1517.2 1739.9 1531.2 1593.9 1255.2 1789.9"/><polygon class="cls-90" points="1715.2 1590.9 1827.2 1774.9 1953.2 1663.9 1715.2 1590.9"/><polygon class="cls-91" points="2194.2 1805.9 1953.2 1663.9 2324.2 1724.9 2194.2 1805.9"/><polygon class="cls-92" points="2259.2 1944.9 2194.2 1805.9 2358.2 1838.9 2259.2 1944.9"/><polygon class="cls-93" points="2229.2 2058.91 2366.2 1956.9 2259.2 1944.9 2229.2 2058.91"/><polygon class="cls-94" points="2194.2 1805.9 1974.2 1848.9 1953.2 1663.9 2194.2 1805.9"/><polygon class="cls-95" points="2259.2 1944.9 2111.2 1926.9 2194.2 1805.9 2259.2 1944.9"/><polygon class="cls-96" points="2229.2 2058.91 2111.2 1926.9 2259.2 1944.9 2229.2 2058.91"/><polygon class="cls-97" points="2194.2 1805.9 1974.2 1848.9 2111.2 1926.9 2194.2 1805.9"/><polygon class="cls-98" points="1827.2 1774.9 1974.2 1848.9 1953.2 1663.9 1827.2 1774.9"/><polygon class="cls-99" points="1517.2 1739.9 1827.2 1774.9 1715.2 1590.9 1517.2 1739.9"/><polygon class="cls-100" points="1061.2 1775.9 1109.2 1847.9 1255.2 1789.9 1061.2 1775.9"/><polygon class="cls-101" points="796.21 1886.9 1109.2 1847.9 1061.2 1775.9 796.21 1886.9"/><polygon class="cls-102" points="1255.2 1789.9 1202.2 1901.9 1109.2 1847.9 1255.2 1789.9"/><polygon class="cls-103" points="796.21 1886.9 952.21 1966.9 980.03 1864 796.21 1886.9"/><polygon class="cls-104" points="1109.2 1847.9 1048.2 1917.9 980.21 1863.9 1109.2 1847.9"/><polygon class="cls-105" points="1202.2 1901.9 1048.2 1917.9 1109.2 1847.9 1202.2 1901.9"/><polygon class="cls-106" points="952.21 1966.9 1048.2 1917.9 980.21 1863.9 952.21 1966.9"/><polygon class="cls-107" points="1202.2 1901.9 1135.2 2004.9 1048.2 1917.9 1202.2 1901.9"/><polygon class="cls-108" points="952.21 1966.9 1135.2 2004.9 1048.2 1917.9 952.21 1966.9"/><polygon class="cls-109" points="796.21 1886.9 835.21 1993.9 952.21 1966.9 796.21 1886.9"/><polygon class="cls-110" points="1135.2 2004.9 1061.2 2051.91 952.21 1966.9 1135.2 2004.9"/><polygon class="cls-111" points="1202.2 1901.9 1245.2 1980.9 1135.2 2004.9 1202.2 1901.9"/><polygon class="cls-112" points="1255.2 1789.9 1466.2 1895.9 1202.2 1901.9 1255.2 1789.9"/><polygon class="cls-113" points="1517.2 1739.9 1466.2 1895.9 1255.2 1789.9 1517.2 1739.9"/><polygon class="cls-114" points="1827.2 1774.9 1594.2 1905.9 1517.2 1739.9 1827.2 1774.9"/><polygon class="cls-115" points="1974.2 1848.9 1838.2 2012.9 1827.2 1774.9 1974.2 1848.9"/><polygon class="cls-116" points="2111.2 1926.9 1838.2 2012.9 1974.2 1848.9 2111.2 1926.9"/><polygon class="cls-117" points="1594.2 1905.9 1466.2 1895.9 1517.2 1739.9 1594.2 1905.9"/><polygon class="cls-118" points="1838.2 2012.9 1594.2 1905.9 1827.2 1774.9 1838.2 2012.9"/><polygon class="cls-119" points="1466.2 1895.9 1245.2 1980.9 1202.2 1901.9 1466.2 1895.9"/><polygon class="cls-120" points="1594.2 1905.9 1531.2 2135.91 1466.2 1895.9 1594.2 1905.9"/><polygon class="cls-121" points="1838.2 2012.9 1531.2 2135.91 1594.2 1905.9 1838.2 2012.9"/><polygon class="cls-122" points="2229.2 2058.91 1838.2 2012.9 2111.2 1926.9 2229.2 2058.91"/><polygon class="cls-123" points="2240.2 2217.91 2229.2 2058.91 2341.2 2229.91 2240.2 2217.91"/><polygon class="cls-124" points="2196.2 2318.91 2240.2 2217.91 2313.2 2318.91 2196.2 2318.91"/><polygon class="cls-125" points="1838.2 2012.9 2240.2 2217.91 2229.2 2058.91 1838.2 2012.9"/><polygon class="cls-126" points="2109.2 2475.91 2196.2 2318.91 2276.2 2414.91 2109.2 2475.91"/><polygon class="cls-127" points="2065.2 2615.91 2109.2 2475.91 2179.2 2618.91 2065.2 2615.91"/><polygon class="cls-128" points="2196.2 2318.91 1963.2 2254.91 2109.2 2475.91 2196.2 2318.91"/><polygon class="cls-129" points="2240.2 2217.91 1963.2 2254.91 2196.2 2318.91 2240.2 2217.91"/><polygon class="cls-130" points="2065.2 2615.91 1933.2 2504.91 2109.2 2475.91 2065.2 2615.91"/><polygon class="cls-131" points="1963.2 2254.91 1933.2 2504.91 2109.2 2475.91 1963.2 2254.91"/><polygon class="cls-132" points="1980.2 2742.91 2065.2 2615.91 2122.2 2699.91 1980.2 2742.91"/><polygon class="cls-133" points="1963.2 2254.91 1838.2 2012.9 2240.2 2217.91 1963.2 2254.91"/><polygon class="cls-134" points="1824.2 2813.91 1980.2 2742.91 1934.2 2890.91 1824.2 2813.91"/><polygon class="cls-135" points="2065.2 2615.91 1933.2 2504.91 1980.2 2742.91 2065.2 2615.91"/><polygon class="cls-136" points="1963.2 2254.91 1531.2 2135.91 1838.2 2012.9 1963.2 2254.91"/><polygon class="cls-137" points="1824.2 2813.91 1933.2 2504.91 1980.2 2742.91 1824.2 2813.91"/><polygon class="cls-138" points="1963.2 2254.91 1933.2 2504.91 1531.2 2135.91 1963.2 2254.91"/><polygon class="cls-139" points="1701.2 2835.91 1824.2 2813.91 1822.2 2959.91 1701.2 2835.91"/><polygon class="cls-140" points="1933.2 2504.91 1658.2 2674.91 1824.2 2813.91 1933.2 2504.91"/><polygon class="cls-141" points="1701.2 2835.91 1658.2 2674.91 1824.2 2813.91 1701.2 2835.91"/><polygon class="cls-142" points="1577.2 2923.91 1498.2 2805.91 1701.2 2835.91 1577.2 2923.91"/><polygon class="cls-143" points="1658.2 2674.91 1498.2 2805.91 1701.2 2835.91 1658.2 2674.91"/><polygon class="cls-144" points="1480.2 2979.91 1319.2 2832.91 1498.2 2805.91 1480.2 2979.91"/><polygon class="cls-145" points="1658.2 2674.91 1564.2 2431.91 1933.2 2504.91 1658.2 2674.91"/><polygon class="cls-146" points="1498.2 2805.91 1389.2 2678.91 1658.2 2674.91 1498.2 2805.91"/><polygon class="cls-147" points="1319.2 2832.91 1389.2 2678.91 1498.2 2805.91 1319.2 2832.91"/><polygon class="cls-148" points="1564.2 2431.91 1658.2 2674.91 1389.2 2678.91 1564.2 2431.91"/><polygon class="cls-149" points="1933.2 2504.91 1531.2 2135.91 1564.2 2431.91 1933.2 2504.91"/><polygon class="cls-150" points="1319.2 2832.91 1066.2 2786.91 1197.2 2959.91 1319.2 2832.91"/><polygon class="cls-151" points="1013.21 2700.91 1066.2 2786.91 968.21 2913.91 1013.21 2700.91"/><polygon class="cls-152" points="1319.2 2832.91 1389.2 2678.91 1066.2 2786.91 1319.2 2832.91"/><polygon class="cls-153" points="1013.21 2700.91 1389.2 2678.91 1066.2 2786.91 1013.21 2700.91"/><polygon class="cls-154" points="883.21 2615.91 1013.21 2700.91 808.21 2759.91 883.21 2615.91"/><polygon class="cls-155" points="877.21 2522.91 883.21 2615.91 714.21 2626.91 877.21 2522.91"/><polygon class="cls-156" points="1013.21 2700.91 1171.2 2547.91 883.21 2615.91 1013.21 2700.91"/><polygon class="cls-157" points="1389.2 2678.91 1171.2 2547.91 1013.21 2700.91 1389.2 2678.91"/><polygon class="cls-158" points="1564.2 2431.91 1171.2 2547.91 1389.2 2678.91 1564.2 2431.91"/><polygon class="cls-159" points="883.21 2615.91 1171.2 2547.91 877.21 2522.91 883.21 2615.91"/><polygon class="cls-160" points="627.21 2425.91 805.21 2251.91 877.21 2522.91 627.21 2425.91"/><polygon class="cls-161" points="796.21 1886.9 812.21 2153.91 534.21 2017.9 796.21 1886.9"/><polygon class="cls-162" points="1061.2 2051.91 835.21 1993.9 952.21 1966.9 1061.2 2051.91"/><polygon class="cls-163" points="796.21 1886.9 835.21 1993.9 812.21 2153.91 796.21 1886.9"/><polygon class="cls-164" points="805.21 2251.91 555.21 2186.91 812.21 2153.91 805.21 2251.91"/><polygon class="cls-165" points="1061.2 2051.91 812.21 2153.91 835.21 1993.9 1061.2 2051.91"/><polygon class="cls-166" points="1531.2 2135.91 1245.2 1980.9 1466.2 1895.9 1531.2 2135.91"/><polygon class="cls-167" points="1061.2 2051.91 1180.2 2147.91 1135.2 2004.9 1061.2 2051.91"/><polygon class="cls-168" points="1245.2 1980.9 1180.2 2147.91 1135.2 2004.9 1245.2 1980.9"/><polygon class="cls-169" points="1531.2 2135.91 1180.2 2147.91 1245.2 1980.9 1531.2 2135.91"/><polygon class="cls-170" points="1171.2 2547.91 1180.2 2431.91 1564.2 2431.91 1171.2 2547.91"/><polygon class="cls-171" points="877.21 2522.91 1053.2 2415.91 1171.2 2547.91 877.21 2522.91"/><polygon class="cls-172" points="1180.2 2431.91 1053.2 2415.91 1171.2 2547.91 1180.2 2431.91"/><polygon class="cls-173" points="805.21 2251.91 1053.2 2415.91 877.21 2522.91 805.21 2251.91"/><polygon class="cls-174" points="1180.2 2431.91 1180.2 2241.91 1053.2 2415.91 1180.2 2431.91"/><polygon class="cls-175" points="1564.2 2431.91 1480.2 2241.91 1531.2 2135.91 1564.2 2431.91"/><polygon class="cls-176" points="1180.2 2431.91 1310.2 2298.91 1564.2 2431.91 1180.2 2431.91"/><polygon class="cls-177" points="1480.2 2241.91 1310.2 2298.91 1564.2 2431.91 1480.2 2241.91"/><polygon class="cls-178" points="1180.2 2147.91 1480.2 2241.91 1531.2 2135.91 1180.2 2147.91"/><polygon class="cls-179" points="1310.2 2298.91 1180.2 2241.91 1180.2 2431.91 1310.2 2298.91"/><polygon class="cls-180" points="1480.2 2241.91 1310.2 2298.91 1180.2 2147.91 1480.2 2241.91"/><polygon class="cls-181" points="1180.2 2241.91 1180.2 2147.91 1310.2 2298.91 1180.2 2241.91"/><polygon class="cls-182" points="812.21 2153.91 1180.2 2147.91 1061.2 2051.91 812.21 2153.91"/><polygon class="cls-183" points="1053.2 2415.91 998.21 2282.91 1180.2 2241.91 1053.2 2415.91"/><polygon class="cls-184" points="805.21 2251.91 998.21 2282.91 1053.2 2415.91 805.21 2251.91"/><polygon class="cls-185" points="1180.2 2241.91 993.21 2215.91 1180.2 2147.91 1180.2 2241.91"/><polygon class="cls-186" points="998.21 2282.91 993.21 2215.91 1180.2 2241.91 998.21 2282.91"/><polygon class="cls-187" points="812.21 2153.91 993.21 2215.91 1180.2 2147.91 812.21 2153.91"/><polygon class="cls-188" points="805.21 2251.91 993.21 2215.91 812.21 2153.91 805.21 2251.91"/><polygon class="cls-189" points="998.21 2282.91 993.21 2215.91 805.21 2251.91 998.21 2282.91"/><polygon class="cls-190" points="1254.2 1259.9 1218.2 1205.9 1187.2 1246.9 1254.2 1259.9"/><polygon class="cls-191" points="1131.2 1171.9 1190.2 1174.9 1187.2 1246.9 1131.2 1171.9"/><polygon class="cls-192" points="1218.2 1205.9 1190.2 1174.9 1187.2 1246.9 1218.2 1205.9"/><polygon class="cls-193" points="1007.21 1088.9 1038.2 1114.9 1032.2 1062.9 1007.21 1088.9"/><polygon class="cls-194" points="1070.2 1039.9 1032.2 1062.9 1062.2 1094.9 1070.2 1039.9"/><polygon class="cls-195" points="1096.2 1034.9 1070.2 1039.9 1093.2 1080.9 1096.2 1034.9"/><polygon class="cls-196" points="1144.2 1105.9 1096.2 1034.9 1093.2 1080.9 1144.2 1105.9"/><polygon class="cls-197" points="1038.2 1114.9 1062.2 1094.9 1032.2 1062.9 1038.2 1114.9"/><polygon class="cls-198" points="1093.2 1080.9 1062.2 1094.9 1070.2 1039.9 1093.2 1080.9"/><polygon class="cls-199" points="1083.2 1124.9 1038.2 1114.9 1062.2 1094.9 1083.2 1124.9"/><polygon class="cls-200" points="1190.2 1174.9 1144.2 1105.9 1137.2 1146.9 1190.2 1174.9"/><polygon class="cls-201" points="1131.2 1171.9 1137.2 1146.9 1190.2 1174.9 1131.2 1171.9"/><polygon class="cls-202" points="1082.95 1124.97 1093.45 1081.08 1062.3 1094.73 1082.95 1124.97"/><polygon class="cls-203" points="1131.2 1171.9 1083.2 1124.9 1114.2 1111.9 1131.2 1171.9"/><polygon class="cls-204" points="1137.2 1146.9 1114.2 1111.9 1131.2 1171.9 1137.2 1146.9"/><polygon class="cls-205" points="1144.2 1105.9 1114.2 1111.9 1137.2 1146.9 1144.2 1105.9"/><polygon class="cls-206" points="1083.2 1124.9 1093.2 1080.9 1114.2 1111.9 1083.2 1124.9"/><polygon class="cls-207" points="1144.2 1105.9 1093.2 1080.9 1114.2 1111.9 1144.2 1105.9"/></svg>